<?xml version="1.0" encoding="UTF-8" standalone="no"?>
<!-- Uploaded to: SVG Repo, www.svgrepo.com, Generator: SVG Repo Mixer Tools -->

<svg
   fill="#ff7f88"
   height="800px"
   width="800px"
   version="1.1"
   id="Capa_1"
   viewBox="0 0 245.562 245.562"
   xml:space="preserve"
   sodipodi:docname="terrain.svg"
   inkscape:version="1.3.2 (091e20ef0f, 2023-11-25, custom)"
   xmlns:inkscape="http://www.inkscape.org/namespaces/inkscape"
   xmlns:sodipodi="http://sodipodi.sourceforge.net/DTD/sodipodi-0.dtd"
   xmlns="http://www.w3.org/2000/svg"
   xmlns:svg="http://www.w3.org/2000/svg"><defs
   id="defs1" /><sodipodi:namedview
   id="namedview1"
   pagecolor="#ffffff"
   bordercolor="#666666"
   borderopacity="1.0"
   inkscape:showpageshadow="2"
   inkscape:pageopacity="0.0"
   inkscape:pagecheckerboard="0"
   inkscape:deskcolor="#d1d1d1"
   inkscape:zoom="1.05"
   inkscape:cx="399.52381"
   inkscape:cy="400"
   inkscape:window-width="1887"
   inkscape:window-height="1080"
   inkscape:window-x="33"
   inkscape:window-y="0"
   inkscape:window-maximized="1"
   inkscape:current-layer="Capa_1" />
<path
   d="M244.062,180.838L150.227,55.725c-1.417-1.889-3.639-3-6-3c-2.361,0-4.584,1.111-6,3l-38.904,51.873L83.876,87.002  c-1.416-1.889-3.639-3-6-3c-2.361,0-4.583,1.111-6,3L1.5,180.838c-1.704,2.272-1.978,5.314-0.708,7.855  c1.27,2.54,3.867,4.145,6.708,4.145h230.562c2.841,0,5.438-1.605,6.708-4.145C246.041,186.151,245.767,183.11,244.062,180.838z   M22.5,177.838l55.376-73.836l15.446,20.596c1.416,1.889,3.639,3,6,3c2.361,0,4.583-1.111,6-3l38.904-51.873l78.836,105.113H22.5z"
   id="path1" />
<path
   style="fill:#ff7f88;stroke-width:0.952381"
   d="m 76.873117,575.47619 c 1.285507,-1.70238 41.471993,-55.28812 89.303303,-119.07944 47.8313,-63.7913 87.30257,-115.86273 87.71391,-115.71428 0.41136,0.14845 12.09876,15.38786 25.972,33.86537 13.87325,18.4775 26.22251,34.46583 27.44278,35.52961 8.74757,7.62572 24.65646,7.46728 32.96033,-0.32827 1.19362,-1.12054 30.72124,-40.10854 65.61694,-86.64 34.89572,-46.53145 63.78858,-84.4809 64.20638,-84.3321 0.4178,0.14879 56.9964,75.27054 125.73022,166.93721 68.73381,91.66666 126.02236,168.05952 127.30788,169.7619 l 2.33731,3.09524 H 400 74.535831 Z"
   id="path2"
   transform="scale(0.3069525)" /></svg>
